<svg id="visual" viewBox="0 0 1536 745" width="1536" height="745" xmlns="http://www.w3.org/2000/svg" xmlns:xlink="http://www.w3.org/1999/xlink" version="1.1"><rect x="0" y="0" width="1536" height="745" fill="#001220"></rect><path d="M0 497L36.5 506.2C73 515.3 146 533.7 219.2 523.2C292.3 512.7 365.7 473.3 438.8 456.3C512 439.3 585 444.7 658.2 459.8C731.3 475 804.7 500 877.8 513.7C951 527.3 1024 529.7 1097.2 532.2C1170.3 534.7 1243.7 537.3 1316.8 537.3C1390 537.3 1463 534.7 1499.5 533.3L1536 532L1536 746L1499.5 746C1463 746 1390 746 1316.8 746C1243.7 746 1170.3 746 1097.2 746C1024 746 951 746 877.8 746C804.7 746 731.3 746 658.2 746C585 746 512 746 438.8 746C365.7 746 292.3 746 219.2 746C146 746 73 746 36.5 746L0 746Z" fill="#fa7268"></path><path d="M0 516L36.5 526.2C73 536.3 146 556.7 219.2 557.7C292.3 558.7 365.7 540.3 438.8 535.5C512 530.7 585 539.3 658.2 546.5C731.3 553.7 804.7 559.3 877.8 557.7C951 556 1024 547 1097.2 543.5C1170.3 540 1243.7 542 1316.8 549.7C1390 557.3 1463 570.7 1499.5 577.3L1536 584L1536 746L1499.5 746C1463 746 1390 746 1316.8 746C1243.7 746 1170.3 746 1097.2 746C1024 746 951 746 877.8 746C804.7 746 731.3 746 658.2 746C585 746 512 746 438.8 746C365.7 746 292.3 746 219.2 746C146 746 73 746 36.5 746L0 746Z" fill="#ef5f67"></path><path d="M0 556L36.5 563.3C73 570.7 146 585.3 219.2 589.7C292.3 594 365.7 588 438.8 583C512 578 585 574 658.2 574.8C731.3 575.7 804.7 581.3 877.8 580C951 578.7 1024 570.3 1097.2 574.5C1170.3 578.7 1243.7 595.3 1316.8 605C1390 614.7 1463 617.3 1499.5 618.7L1536 620L1536 746L1499.5 746C1463 746 1390 746 1316.8 746C1243.7 746 1170.3 746 1097.2 746C1024 746 951 746 877.8 746C804.7 746 731.3 746 658.2 746C585 746 512 746 438.8 746C365.7 746 292.3 746 219.2 746C146 746 73 746 36.5 746L0 746Z" fill="#e34c67"></path><path d="M0 669L36.5 658C73 647 146 625 219.2 615.5C292.3 606 365.7 609 438.8 609C512 609 585 606 658.2 604.3C731.3 602.7 804.7 602.3 877.8 602C951 601.7 1024 601.3 1097.2 603.8C1170.3 606.3 1243.7 611.7 1316.8 614.2C1390 616.7 1463 616.3 1499.5 616.2L1536 616L1536 746L1499.5 746C1463 746 1390 746 1316.8 746C1243.7 746 1170.3 746 1097.2 746C1024 746 951 746 877.8 746C804.7 746 731.3 746 658.2 746C585 746 512 746 438.8 746C365.7 746 292.3 746 219.2 746C146 746 73 746 36.5 746L0 746Z" fill="#d53867"></path><path d="M0 681L36.5 684.5C73 688 146 695 219.2 690.2C292.3 685.3 365.7 668.7 438.8 668.2C512 667.7 585 683.3 658.2 690.5C731.3 697.7 804.7 696.3 877.8 697.3C951 698.3 1024 701.7 1097.2 701C1170.3 700.3 1243.7 695.7 1316.8 692C1390 688.3 1463 685.7 1499.5 684.3L1536 683L1536 746L1499.5 746C1463 746 1390 746 1316.8 746C1243.7 746 1170.3 746 1097.2 746C1024 746 951 746 877.8 746C804.7 746 731.3 746 658.2 746C585 746 512 746 438.8 746C365.7 746 292.3 746 219.2 746C146 746 73 746 36.5 746L0 746Z" fill="#c62368"></path></svg>